<svg width="2400" height="1347" viewBox="0 0 2400 1347" fill="none" xmlns="http://www.w3.org/2000/svg">
<g clip-path="url(#clip0_27_91)">
<path d="M1062 731.5L1075.5 709L1085 679.5L1095.5 655.5V637H1010.5V620H1089.5V611.5L1095.5 604.5L1108 611.5V603L1116 590L1138.5 593.5L1143.5 603L1138.5 623.5L1146.5 626.5H1158.5L1153 649.5L1150 662L1141 665H1128.5V668.5L1141 672L1155 687.5L1158.5 696.5L1150 713.5L1161 719L1158.5 726.5L1143.5 731.5L1128.5 726.5V719L1133.5 702.5L1128.5 693L1110.5 687.5L1102.5 699L1094 717L1089.5 731.5L1075.5 736L1062 731.5Z" fill="#B2B2B2"/>
<path d="M1665 605.5L1661.5 631L1659 636.5L1663.5 655.5L1656 665L1661.5 666.5V676.5L1656 682.5L1659 688.5L1674 690.5V701L1723.5 711V719L1665 713L1663.5 727.5L1659 744.5L1676 748V761.5H1661.5H1638L1632 746L1621 741.5L1614.5 634.5L1624 633V628.5L1629.5 611L1647 608.5L1653 602.5L1665 605.5Z" fill="#515151"/>
<path d="M781 954V968.5L778.5 973.5L766 976L752 966L748.5 938.5L733 920L727.5 929.5H715.5L707 924.5L680.5 927L672.5 918L680.5 907.5L674.5 901L678 887L696.5 875L693 867L684.5 861L672.5 855L655.5 845.5L652 832.5H674.5L678 813L684.5 800.5L666.5 785.5V768.5L684.5 764.5L724.5 783L733 817.5L742.5 840.5L757 867L766 907.5L774 938.5L781 954Z" fill="#D9D9D9"/>
</g>
<defs>
<clipPath id="clip0_27_91">
<rect width="2400" height="1347" fill="white"/>
</clipPath>
</defs>
</svg>
